<svg xmlns="http://www.w3.org/2000/svg" viewBox="0 0 133.87 133.86"><defs><style>.cls-1{fill:#2a569c;}</style></defs><title>ico_facebook</title><g id="レイヤー_2" data-name="レイヤー 2"><g id="レイヤー_1-2" data-name="レイヤー 1"><path class="cls-1" d="M112.95,0h-92A20.92,20.92,0,0,0,0,20.92v92a20.92,20.92,0,0,0,20.92,20.92h92a20.91,20.91,0,0,0,20.92-20.92v-92A20.92,20.92,0,0,0,112.95,0ZM81.27,67H71.89V100.4H58V67H51.38V55.14H58V47.5c0-5.47,2.6-14,14-14l10.3,0V45H74.84c-1.22,0-2.95.61-2.95,3.22v6.95h10.6Z"/></g></g></svg>