<svg xmlns="http://www.w3.org/2000/svg" viewBox="0 0 133.87 133.86"><defs><style>.cls-1{fill:#30a6df;}</style></defs><title>ico_twitter</title><g id="レイヤー_2" data-name="レイヤー 2"><g id="レイヤー_1-2" data-name="レイヤー 1"><path class="cls-1" d="M112.95,0h-92A20.92,20.92,0,0,0,0,20.92v92a20.91,20.91,0,0,0,20.92,20.92h92a20.91,20.91,0,0,0,20.92-20.92v-92A20.92,20.92,0,0,0,112.95,0ZM93.55,53.29c0,.59,0,1.18,0,1.77,0,18.15-13.81,39.07-39.07,39.07A38.86,38.86,0,0,1,33.47,88a28,28,0,0,0,3.28.19,27.52,27.52,0,0,0,17.05-5.87A13.74,13.74,0,0,1,41,72.74a13.77,13.77,0,0,0,6.2-.24A13.75,13.75,0,0,1,36.15,59v-.17a13.66,13.66,0,0,0,6.22,1.72,13.75,13.75,0,0,1-4.25-18.33A39,39,0,0,0,66.43,56.6a13.74,13.74,0,0,1,23.4-12.53,27.49,27.49,0,0,0,8.72-3.33,13.77,13.77,0,0,1-6,7.59,27.29,27.29,0,0,0,7.88-2.16A27.85,27.85,0,0,1,93.55,53.29Z"/></g></g></svg>